<?xml version="1.0" encoding="UTF-8"?>
<svg version="1.1" xmlns="http://www.w3.org/2000/svg" width="64" height="64">
<path d="M0 0 C4.62 0 9.24 0 14 0 C14 2.64 14 5.28 14 8 C26.54 8 39.08 8 52 8 C52 18 52 18 50.49609375 20.33203125 C49.81675781 20.82058594 49.13742188 21.30914063 48.4375 21.8125 C47.77621094 22.31394531 47.11492188 22.81539062 46.43359375 23.33203125 C45.22896484 24.15767578 45.22896484 24.15767578 44 25 C43.52570557 25.42289307 43.05141113 25.84578613 42.56274414 26.28149414 C37.27274999 30.73074715 32.28450849 30.77313886 25.5625 30.8125 C24.54478516 30.83763672 23.52707031 30.86277344 22.47851562 30.88867188 C19.98528776 30.94719835 17.49380145 30.98372984 15 31 C14.505 32.485 14.505 32.485 14 34 C15.32 34.66 16.64 35.32 18 36 C18 36.66 18 37.32 18 38 C20.64 38 23.28 38 26 38 C26.66 36.68 27.32 35.36 28 34 C30.875 33.875 30.875 33.875 34 34 C36 36 36 36 36.25 39 C36 42 36 42 34 44 C30.875 44.125 30.875 44.125 28 44 C27.34 42.68 26.68 41.36 26 40 C23.36 40 20.72 40 18 40 C17.34 41.32 16.68 42.64 16 44 C13.125 44.125 13.125 44.125 10 44 C8 42 8 42 7.875 38.875 C7.91625 37.92625 7.9575 36.9775 8 36 C9.32 35.34 10.64 34.68 12 34 C12 32.02 12 30.04 12 28 C12.59949463 27.9906543 13.19898926 27.98130859 13.81665039 27.97167969 C16.56606267 27.91757724 19.31384552 27.83401203 22.0625 27.75 C23.00544922 27.73582031 23.94839844 27.72164062 24.91992188 27.70703125 C31.16116159 27.48956645 34.85155429 26.55379439 40 23 C40.79148438 22.50757812 41.58296875 22.01515625 42.3984375 21.5078125 C43.37683594 20.82332031 43.37683594 20.82332031 44.375 20.125 C45.04273438 19.67382812 45.71046875 19.22265625 46.3984375 18.7578125 C48.61762302 16.64154896 48.61762302 16.64154896 49 11 C31.675 10.505 31.675 10.505 14 10 C14 10.66 14 11.32 14 12 C22.25 12 30.5 12 39 12 C39 12.66 39 13.32 39 14 C30.09 14 21.18 14 12 14 C12 11.36 12 8.72 12 6 C8.04 6 4.08 6 0 6 C0 4.02 0 2.04 0 0 Z M3 2 C3 2.66 3 3.32 3 4 C5.97 4 8.94 4 12 4 C11.67 3.34 11.34 2.68 11 2 C8.36 2 5.72 2 3 2 Z " fill="#5B50FF" transform="translate(6,10)"/>
<path d="M0 0 C2.875 -0.125 2.875 -0.125 6 0 C8 2 8 2 8.25 5 C8 8 8 8 6 10 C2.875 10.125 2.875 10.125 0 10 C-0.66 8.68 -1.32 7.36 -2 6 C-4.64 6 -7.28 6 -10 6 C-10.66 7.32 -11.32 8.64 -12 10 C-14.875 10.125 -14.875 10.125 -18 10 C-18.66 9.34 -19.32 8.68 -20 8 C-19.625 5.375 -19.625 5.375 -19 3 C-13.375 1.875 -13.375 1.875 -10 3 C-8.6082227 3.21555251 -7.21168784 3.40193746 -5.8125 3.5625 C-4.554375 3.706875 -3.29625 3.85125 -2 4 C-1.34 2.68 -0.68 1.36 0 0 Z " fill="#B32AFF" transform="translate(34,44)"/>
<path d="M0 0 C7.26 0 14.52 0 22 0 C22 0.66 22 1.32 22 2 C14.74 2 7.48 2 0 2 C0 1.34 0 0.68 0 0 Z " fill="#604FFF" transform="translate(18,26)"/>
<path d="M0 0 C1.65 0.33 3.3 0.66 5 1 C4.67 2.65 4.34 4.3 4 6 C2.35 5.67 0.7 5.34 -1 5 C-0.67 3.35 -0.34 1.7 0 0 Z " fill="#A9ADFF" transform="translate(35,46)"/>
<path d="M0 0 C1.65 0.33 3.3 0.66 5 1 C4.67 2.65 4.34 4.3 4 6 C2.35 5.67 0.7 5.34 -1 5 C-0.67 3.35 -0.34 1.7 0 0 Z " fill="#A9ADFF" transform="translate(17,46)"/>
<path d="M0 0 C5.28 0 10.56 0 16 0 C16 0.66 16 1.32 16 2 C10.72 2 5.44 2 0 2 C0 1.34 0 0.68 0 0 Z " fill="#6F48FF" transform="translate(18,30)"/>
<path d="M0 0 C3.3 0 6.6 0 10 0 C10 0.66 10 1.32 10 2 C6.7 2 3.4 2 0 2 C0 1.34 0 0.68 0 0 Z " fill="#7E42FF" transform="translate(18,34)"/>
</svg>
